<?xml version="1.0" encoding="UTF-8" standalone="no"?>
<!-- Generator: Adobe Illustrator 19.0.0, SVG Export Plug-In . SVG Version: 6.00 Build 0)  -->

<svg
   xmlns:dc="http://purl.org/dc/elements/1.1/"
   xmlns:cc="http://creativecommons.org/ns#"
   xmlns:rdf="http://www.w3.org/1999/02/22-rdf-syntax-ns#"
   xmlns:svg="http://www.w3.org/2000/svg"
   xmlns="http://www.w3.org/2000/svg"
   xmlns:sodipodi="http://sodipodi.sourceforge.net/DTD/sodipodi-0.dtd"
   xmlns:inkscape="http://www.inkscape.org/namespaces/inkscape"
   version="1.1"
   id="Capa_1"
   x="0px"
   y="0px"
   viewBox="0 0 32 32"
   style="enable-background:new 0 0 32 32;"
   xml:space="preserve"
   sodipodi:docname="bank-transfer-logo.svg"
   inkscape:version="0.92.4 (33fec40, 2019-01-16)"><metadata
   id="metadata121"><rdf:RDF><cc:Work
       rdf:about=""><dc:format>image/svg+xml</dc:format><dc:type
         rdf:resource="http://purl.org/dc/dcmitype/StillImage" /></cc:Work></rdf:RDF></metadata><defs
   id="defs119" /><sodipodi:namedview
   pagecolor="#ffffff"
   bordercolor="#666666"
   borderopacity="1"
   objecttolerance="10"
   gridtolerance="10"
   guidetolerance="10"
   inkscape:pageopacity="0"
   inkscape:pageshadow="2"
   inkscape:window-width="1024"
   inkscape:window-height="537"
   id="namedview117"
   showgrid="false"
   inkscape:zoom="7.375"
   inkscape:cx="-12.426776"
   inkscape:cy="5.2939467"
   inkscape:window-x="0"
   inkscape:window-y="35"
   inkscape:window-maximized="1"
   inkscape:current-layer="Capa_1" />




<g
   id="g30"
   transform="translate(0,2)">
	<g
   id="g28">
		<path
   d="M 19.829,2.805 C 19.327,2.212 18.774,1.659 18.124,1.18 17.802,0.938 17.458,0.715 17.081,0.515 16.701,0.319 16.312,0.13 15.847,0 c 0.008,0.483 0.092,0.908 0.191,1.324 0.094,0.404 0.221,0.783 0.369,1.147 -0.354,0.104 -0.784,0.25 -1.268,0.438 -0.313,0.14 -0.656,0.266 -1.002,0.453 C 13.786,3.53 13.43,3.734 13.069,3.962 12.702,4.169 12.36,4.463 12.001,4.717 11.674,5.028 11.315,5.297 11.024,5.65 10.723,5.988 10.429,6.326 10.202,6.71 10.087,6.897 9.954,7.07 9.858,7.261 9.766,7.455 9.678,7.648 9.592,7.836 9.397,8.2 9.308,8.592 9.206,8.949 9.085,9.303 9.042,9.65 9.009,9.97 c -0.027,0.319 -0.094,0.601 -0.078,0.861 0.008,0.256 0.014,0.478 0.02,0.662 0.011,0.363 0.014,0.57 0.014,0.57 0,0 0.039,-0.205 0.105,-0.562 0.033,-0.177 0.074,-0.39 0.121,-0.636 C 9.228,10.62 9.355,10.36 9.443,10.073 9.537,9.786 9.646,9.48 9.826,9.186 9.99,8.887 10.139,8.564 10.381,8.285 10.49,8.142 10.602,7.994 10.713,7.847 10.83,7.704 10.98,7.581 11.109,7.447 11.363,7.17 11.673,6.946 11.98,6.724 c 0.293,-0.233 0.65,-0.39 0.959,-0.581 0.352,-0.141 0.662,-0.317 1.008,-0.419 0.33,-0.12 0.655,-0.221 0.973,-0.293 0.309,-0.09 0.62,-0.13 0.891,-0.188 0.174,-0.025 0.334,-0.046 0.488,-0.065 -0.018,0.046 -0.037,0.09 -0.053,0.137 -0.158,0.433 -0.281,0.888 -0.367,1.367 -0.039,0.243 -0.071,0.489 -0.096,0.74 -0.02,0.255 -0.024,0.519 -0.006,0.797 0.261,-0.1 0.498,-0.213 0.723,-0.336 0.217,-0.127 0.43,-0.259 0.633,-0.395 0.403,-0.277 0.766,-0.578 1.094,-0.9 0.664,-0.642 1.213,-1.359 1.674,-2.13 L 19.96,4.36 C 20.243,3.881 20.21,3.254 19.829,2.805 Z"
   id="path26"
   inkscape:connector-curvature="0" />
	</g>
</g>





<g
   id="g66"
   transform="translate(-36)">
	
</g>


<g
   id="g84"
   transform="translate(0,2)">
	<g
   id="g82">
		<path
   d="M 21.957,5.66 C 21.938,5.298 21.922,5.092 21.922,5.092 c 0,0 -0.029,0.205 -0.09,0.564 -0.029,0.177 -0.062,0.392 -0.101,0.639 -0.03,0.246 -0.149,0.509 -0.229,0.799 -0.083,0.29 -0.182,0.598 -0.354,0.898 -0.154,0.304 -0.293,0.63 -0.527,0.917 -0.104,0.147 -0.211,0.297 -0.317,0.449 -0.115,0.145 -0.259,0.273 -0.388,0.411 -0.244,0.283 -0.547,0.518 -0.848,0.748 -0.283,0.242 -0.637,0.408 -0.941,0.609 -0.346,0.151 -0.651,0.337 -0.994,0.448 -0.325,0.131 -0.648,0.241 -0.964,0.322 -0.305,0.1 -0.613,0.149 -0.883,0.214 -0.173,0.031 -0.334,0.057 -0.486,0.08 0.014,-0.047 0.033,-0.091 0.049,-0.138 0.144,-0.439 0.254,-0.897 0.326,-1.378 0.031,-0.244 0.054,-0.491 0.072,-0.743 0.013,-0.255 0.009,-0.52 -0.016,-0.796 -0.258,0.106 -0.492,0.227 -0.713,0.357 -0.215,0.133 -0.42,0.271 -0.621,0.413 -0.392,0.289 -0.746,0.6 -1.064,0.933 -0.644,0.661 -1.171,1.394 -1.609,2.179 l -0.057,0.098 c -0.269,0.488 -0.217,1.113 0.178,1.551 0.52,0.577 1.09,1.114 1.752,1.573 0.328,0.233 0.679,0.445 1.064,0.633 0.383,0.186 0.777,0.364 1.248,0.479 -0.025,-0.481 -0.123,-0.903 -0.23,-1.316 -0.107,-0.401 -0.244,-0.777 -0.404,-1.136 0.352,-0.115 0.775,-0.273 1.254,-0.475 0.308,-0.148 0.647,-0.286 0.988,-0.483 0.344,-0.177 0.696,-0.392 1.045,-0.631 0.36,-0.218 0.694,-0.522 1.047,-0.787 0.317,-0.319 0.668,-0.601 0.949,-0.961 0.291,-0.347 0.573,-0.692 0.789,-1.083 0.11,-0.191 0.235,-0.368 0.327,-0.562 C 21.258,9.72 21.342,9.525 21.422,9.334 21.606,8.964 21.684,8.569 21.776,8.21 21.884,7.854 21.92,7.505 21.942,7.185 21.963,6.866 22.018,6.581 21.996,6.322 21.979,6.067 21.967,5.844 21.957,5.66 Z"
   id="path80"
   inkscape:connector-curvature="0" />
	</g>
</g>
<g
   id="g86">
</g>
<g
   id="g88">
</g>
<g
   id="g90">
</g>
<g
   id="g92">
</g>
<g
   id="g94">
</g>
<g
   id="g96">
</g>
<g
   id="g98">
</g>
<g
   id="g100">
</g>
<g
   id="g102">
</g>
<g
   id="g104">
</g>
<g
   id="g106">
</g>
<g
   id="g108">
</g>
<g
   id="g110">
</g>
<g
   id="g112">
</g>
<g
   id="g114">
</g>
<g
   aria-label="BANCARIA"
   style="font-style:normal;font-variant:normal;font-weight:bold;font-stretch:normal;font-size:6.4000001px;line-height:1.25;font-family:Arial;-inkscape-font-specification:'Arial Bold';letter-spacing:-0.30000001px;word-spacing:0px;fill:#000000;fill-opacity:1;stroke:none"
   id="text3832"><path
     d="M 0.46874999,25.757733 H 2.3 q 0.54375,0 0.809375,0.04687 0.26875,0.04375 0.478125,0.1875 0.2125,0.14375 0.353125,0.384375 0.140625,0.2375 0.140625,0.534375 0,0.321875 -0.175,0.590625 -0.171875,0.26875 -0.46875,0.403125 0.41875,0.121876 0.64375,0.415626 0.2250001,0.29375 0.2250001,0.690625 0,0.3125 -0.1468751,0.609375 -0.14375,0.29375 -0.396875,0.471875 -0.25,0.175 -0.61875,0.215625 -0.23125,0.025 -1.115625,0.03125 H 0.46874999 Z m 0.92500001,0.7625 v 1.059375 H 2 q 0.540625,0 0.671875,-0.01563 0.2375,-0.02812 0.371875,-0.1625 0.1375,-0.1375 0.1375,-0.359375 0,-0.2125 -0.11875,-0.34375 -0.115625,-0.134375 -0.346875,-0.1625 -0.1375,-0.01563 -0.790625,-0.01563 z m 0,1.821876 v 1.225 H 2.25 q 0.5,0 0.634375,-0.02812 0.20625,-0.0375 0.334375,-0.18125 0.13125,-0.14688 0.13125,-0.39063 0,-0.20625 -0.1,-0.35 -0.1,-0.14375 -0.290625,-0.209375 -0.1875,-0.06563 -0.81875,-0.06563 z"
     id="path3896"
     inkscape:connector-curvature="0" /><path
     d="M 8.9218749,30.338984 H 7.9156248 l -0.4,-1.040625 h -1.83125 l -0.378125,1.040625 h -0.98125 l 1.784375,-4.581251 h 0.978125 z m -1.7031251,-1.8125 -0.63125,-1.700001 -0.61875,1.700001 z"
     id="path3898"
     inkscape:connector-curvature="0" /><path
     d="M 9.1249996,30.338984 V 25.757733 H 10.025 l 1.875,3.059376 v -3.059376 h 0.859375 v 4.581251 H 11.83125 L 9.9843746,27.351483 v 2.987501 z"
     id="path3900"
     inkscape:connector-curvature="0" /><path
     d="m 16.371875,28.654609 0.896875,0.284375 q -0.20625,0.75 -0.6875,1.115625 -0.478125,0.3625 -1.215625,0.3625 -0.9125,0 -1.5,-0.621875 -0.5875,-0.625 -0.5875,-1.70625 0,-1.143751 0.590625,-1.775001 0.590625,-0.634375 1.553125,-0.634375 0.840625,0 1.365625,0.496875 0.3125,0.29375 0.46875,0.84375 l -0.915625,0.21875 Q 16.259375,26.882733 16,26.676483 q -0.25625,-0.20625 -0.625,-0.20625 -0.509375,0 -0.828125,0.365625 -0.315625,0.365625 -0.315625,1.184376 0,0.86875 0.3125,1.2375 0.3125,0.36875 0.8125,0.36875 0.36875,0 0.634375,-0.234375 0.265625,-0.234375 0.38125,-0.7375 z"
     id="path3902"
     inkscape:connector-curvature="0" /><path
     d="m 21.896874,30.338984 h -1.00625 l -0.4,-1.040625 h -1.83125 l -0.378125,1.040625 h -0.98125 l 1.784375,-4.581251 h 0.978125 z m -1.703125,-1.8125 -0.63125,-1.700001 -0.61875,1.700001 z"
     id="path3904"
     inkscape:connector-curvature="0" /><path
     d="m 22.09375,30.338984 v -4.581251 h 1.946875 q 0.734375,0 1.065625,0.125 0.334375,0.121875 0.534375,0.4375 0.2,0.315625 0.2,0.721875 0,0.515625 -0.303125,0.853125 -0.303125,0.334376 -0.90625,0.421876 0.3,0.175 0.49375,0.384375 0.196875,0.209375 0.528125,0.74375 l 0.559375,0.89375 H 25.10625 L 24.4375,29.342109 Q 24.08125,28.807734 23.95,28.670234 23.81875,28.529609 23.671875,28.479609 23.525,28.426484 23.20625,28.426484 h -0.1875 v 1.9125 z m 0.925,-2.643751 h 0.684375 q 0.665625,0 0.83125,-0.05625 0.165625,-0.05625 0.259375,-0.19375 0.09375,-0.1375 0.09375,-0.34375 0,-0.23125 -0.125,-0.371875 -0.121875,-0.14375 -0.346875,-0.18125 -0.1125,-0.01563 -0.675,-0.01563 H 23.01875 Z"
     id="path3906"
     inkscape:connector-curvature="0" /><path
     d="m 26.387501,30.338984 v -4.581251 h 0.925 v 4.581251 z"
     id="path3908"
     inkscape:connector-curvature="0" /><path
     d="m 32.021874,30.338984 h -1.00625 l -0.4,-1.040625 h -1.83125 l -0.378125,1.040625 h -0.98125 l 1.784375,-4.581251 h 0.978125 z m -1.703125,-1.8125 -0.63125,-1.700001 -0.61875,1.700001 z"
     id="path3910"
     inkscape:connector-curvature="0" /></g><flowRoot
   xml:space="preserve"
   id="flowRoot3834"
   style="fill:black;fill-opacity:1;stroke:none;font-family:'Arial Black';font-style:normal;font-weight:normal;font-size:8px;line-height:1.25;letter-spacing:0px;word-spacing:0px;-inkscape-font-specification:'Arial Black, ';font-stretch:normal;font-variant:normal"><flowRegion
     id="flowRegion3836"><rect
       id="rect3838"
       width="3.6610169"
       height="69.016953"
       x="48.271187"
       y="-74.711861" /></flowRegion><flowPara
     id="flowPara3840"></flowPara></flowRoot><g
   aria-label="TRANSFERENCIA"
   style="font-style:normal;font-variant:normal;font-weight:bold;font-stretch:normal;font-size:4.13333321px;line-height:1.25;font-family:Arial;-inkscape-font-specification:'Arial Bold';letter-spacing:-0.30000001px;word-spacing:0px;fill:#000000;fill-opacity:1;stroke:none"
   id="text3828"><path
     d="M 1.1023231,24.644066 V 22.185863 H 0.22439348 V 21.685342 H 2.5756304 v 0.500521 H 1.699719 v 2.458203 z"
     style="font-size:4.13333321px;letter-spacing:-0.30000001px;word-spacing:0px"
     id="path3869"
     inkscape:connector-curvature="0" /><path
     d="m 2.6651486,24.644066 v -2.958724 h 1.2573568 q 0.4742838,0 0.6882161,0.08073 0.2159505,0.07871 0.3451172,0.282552 0.1291666,0.203841 0.1291666,0.466211 0,0.333008 -0.1957682,0.550977 -0.1957682,0.21595 -0.5852864,0.272461 0.1937499,0.11302 0.3188802,0.248242 0.1271484,0.135221 0.3410807,0.480338 l 0.361263,0.577214 H 4.6107215 L 4.1788204,24.000251 Q 3.9487423,23.655134 3.8639767,23.566332 3.7792111,23.475511 3.6843543,23.44322 3.5894976,23.40891 3.3836382,23.40891 H 3.2625444 v 1.235156 z m 0.5973958,-1.707422 h 0.4419922 q 0.4298828,0 0.536849,-0.03633 0.1069661,-0.03633 0.167513,-0.12513 0.060547,-0.0888 0.060547,-0.222005 0,-0.149349 -0.080729,-0.24017 -0.078711,-0.09284 -0.2240235,-0.117057 -0.072656,-0.01009 -0.4359374,-0.01009 h -0.466211 z"
     style="font-size:4.13333321px;letter-spacing:-0.30000001px;word-spacing:0px"
     id="path3871"
     inkscape:connector-curvature="0" /><path
     d="M 8.0182081,24.644066 H 7.3683383 L 7.110005,23.971996 H 5.9273227 L 5.683117,24.644066 H 5.0493931 L 6.2018019,21.685342 H 6.8335076 Z M 6.9182732,23.473493 6.5105909,22.375576 6.1109816,23.473493 Z"
     style="font-size:4.13333321px;letter-spacing:-0.30000001px;word-spacing:0px"
     id="path3873"
     inkscape:connector-curvature="0" /><path
     d="m 8.0431432,24.644066 v -2.958724 h 0.58125 l 1.2109374,1.975846 v -1.975846 h 0.5550134 v 2.958724 H 9.7909296 L 8.5981562,22.714639 v 1.929427 z"
     style="font-size:4.13333321px;letter-spacing:-0.30000001px;word-spacing:0px"
     id="path3875"
     inkscape:connector-curvature="0" /><path
     d="m 10.5727,23.681371 0.58125,-0.05651 q 0.05247,0.292643 0.211914,0.429883 0.161459,0.13724 0.433919,0.13724 0.288607,0 0.43392,-0.121094 0.14733,-0.123112 0.14733,-0.286589 0,-0.104948 -0.06257,-0.177604 -0.06055,-0.07467 -0.213932,-0.129167 -0.104948,-0.03633 -0.47832,-0.129166 -0.480339,-0.119076 -0.674089,-0.292643 -0.272461,-0.244206 -0.272461,-0.595378 0,-0.226042 0.127149,-0.42181 0.129166,-0.197786 0.369336,-0.300716 0.242187,-0.10293 0.583268,-0.10293 0.557031,0 0.837565,0.244206 0.282552,0.244206 0.29668,0.651888 l -0.597396,0.02624 q -0.03835,-0.22806 -0.165495,-0.326953 -0.12513,-0.100912 -0.377409,-0.100912 -0.260351,0 -0.407682,0.106967 -0.09486,0.06862 -0.09486,0.183658 0,0.104948 0.0888,0.179623 0.113021,0.09486 0.548959,0.197786 0.435937,0.10293 0.643815,0.213933 0.209895,0.108984 0.326953,0.300716 0.119075,0.189713 0.119075,0.470247 0,0.254297 -0.141276,0.476302 -0.141276,0.222005 -0.399609,0.33099 -0.258333,0.106966 -0.643815,0.106966 -0.561068,0 -0.861784,-0.258334 -0.300716,-0.260351 -0.359245,-0.756835 z"
     style="font-size:4.13333321px;letter-spacing:-0.30000001px;word-spacing:0px"
     id="path3877"
     inkscape:connector-curvature="0" /><path
     d="m 13.189041,24.644066 v -2.958724 h 2.028321 v 0.500521 h -1.430925 v 0.700325 h 1.235156 v 0.500521 h -1.235156 v 1.257357 z"
     style="font-size:4.13333321px;letter-spacing:-0.30000001px;word-spacing:0px"
     id="path3879"
     inkscape:connector-curvature="0" /><path
     d="m 15.411828,24.644066 v -2.958724 h 2.193815 v 0.500521 h -1.59642 v 0.655924 h 1.485417 v 0.498503 h -1.485417 v 0.805273 h 1.65293 v 0.498503 z"
     style="font-size:4.13333321px;letter-spacing:-0.30000001px;word-spacing:0px"
     id="path3881"
     inkscape:connector-curvature="0" /><path
     d="m 17.874782,24.644066 v -2.958724 h 1.257357 q 0.474284,0 0.688216,0.08073 0.215951,0.07871 0.345117,0.282552 0.129167,0.203841 0.129167,0.466211 0,0.333008 -0.195768,0.550977 -0.195768,0.21595 -0.585287,0.272461 0.19375,0.11302 0.318881,0.248242 0.127148,0.135221 0.34108,0.480338 l 0.361263,0.577214 h -0.714453 l -0.431901,-0.643815 q -0.230078,-0.345117 -0.314843,-0.433919 -0.08477,-0.09082 -0.179623,-0.123112 -0.09486,-0.03431 -0.300716,-0.03431 h -0.121094 v 1.235156 z m 0.597396,-1.707422 h 0.441992 q 0.429883,0 0.536849,-0.03633 0.106967,-0.03633 0.167513,-0.12513 0.06055,-0.0888 0.06055,-0.222005 0,-0.149349 -0.08073,-0.24017 -0.07871,-0.09284 -0.224023,-0.117057 -0.07266,-0.01009 -0.435938,-0.01009 H 18.47218 Z"
     style="font-size:4.13333321px;letter-spacing:-0.30000001px;word-spacing:0px"
     id="path3883"
     inkscape:connector-curvature="0" /><path
     d="m 20.559744,24.644066 v -2.958724 h 2.193815 v 0.500521 h -1.59642 v 0.655924 h 1.485417 v 0.498503 h -1.485417 v 0.805273 h 1.65293 v 0.498503 z"
     style="font-size:4.13333321px;letter-spacing:-0.30000001px;word-spacing:0px"
     id="path3885"
     inkscape:connector-curvature="0" /><path
     d="m 23.026736,24.644066 v -2.958724 h 0.58125 l 1.210937,1.975846 v -1.975846 h 0.555013 v 2.958724 h -0.599414 l -1.192773,-1.929427 v 1.929427 z"
     style="font-size:4.13333321px;letter-spacing:-0.30000001px;word-spacing:0px"
     id="path3887"
     inkscape:connector-curvature="0" /><path
     d="m 27.600759,23.55624 0.579232,0.183659 q -0.133203,0.484375 -0.44401,0.720508 -0.308789,0.234115 -0.785092,0.234115 -0.589322,0 -0.96875,-0.401628 -0.379427,-0.403646 -0.379427,-1.101953 0,-0.738672 0.381446,-1.146354 0.381445,-0.409701 1.00306,-0.409701 0.542903,0 0.881966,0.320899 0.201823,0.189713 0.302734,0.544922 l -0.591341,0.141276 q -0.05247,-0.230079 -0.219987,-0.363282 -0.165495,-0.133203 -0.403646,-0.133203 -0.328971,0 -0.534831,0.236133 -0.203841,0.236133 -0.203841,0.764909 0,0.561068 0.201823,0.799219 0.201823,0.238151 0.52474,0.238151 0.238151,0 0.4097,-0.151368 0.17155,-0.151367 0.246224,-0.476302 z"
     style="font-size:4.13333321px;letter-spacing:-0.30000001px;word-spacing:0px"
     id="path3889"
     inkscape:connector-curvature="0" /><path
     d="m 28.376476,24.644066 v -2.958724 h 0.597395 v 2.958724 z"
     style="font-size:4.13333321px;letter-spacing:-0.30000001px;word-spacing:0px"
     id="path3891"
     inkscape:connector-curvature="0" /><path
     d="m 31.909092,24.644066 h -0.64987 l -0.258333,-0.67207 h -1.182682 l -0.244206,0.67207 h -0.633724 l 1.152409,-2.958724 h 0.631706 z m -1.099935,-1.170573 -0.407682,-1.097917 -0.399609,1.097917 z"
     style="font-size:4.13333321px;letter-spacing:-0.30000001px;word-spacing:0px"
     id="path3893"
     inkscape:connector-curvature="0" /></g></svg>