<?xml version="1.0" encoding="UTF-8" ?>
<!DOCTYPE svg PUBLIC "-//W3C//DTD SVG 1.1//EN" "http://www.w3.org/Graphics/SVG/1.1/DTD/svg11.dtd">
<svg width="1100pt" height="800pt" viewBox="0 0 1100 800" version="1.1" xmlns="http://www.w3.org/2000/svg">
<g id="#2be6abfe">
<path fill="#2be6ab" opacity="1.00" d=" M 536.95 295.03 C 549.78 294.16 563.30 295.85 574.60 302.35 C 583.86 307.68 590.62 316.81 593.71 326.97 C 596.65 335.97 596.80 345.53 596.68 354.90 C 593.69 354.91 590.71 354.88 587.74 355.02 C 587.80 346.97 587.76 338.81 585.79 330.95 C 583.72 322.10 579.26 313.67 572.45 307.57 C 564.52 300.38 553.94 296.72 543.41 295.74 C 541.26 295.43 539.10 295.20 536.95 295.03 Z" />
<path fill="#2be6ab" opacity="1.00" d=" M 55.10 295.75 C 56.92 296.10 58.73 296.58 60.28 297.63 C 71.62 304.42 83.36 310.58 94.50 317.67 C 94.89 327.78 94.58 337.92 94.63 348.04 C 93.15 347.82 91.68 347.49 90.42 346.65 C 78.71 339.68 66.78 333.07 55.06 326.11 C 55.03 315.99 54.94 305.87 55.10 295.75 M 57.06 298.56 C 56.48 307.62 57.44 316.73 56.48 325.76 C 69.00 332.68 81.26 340.06 93.72 347.09 C 93.21 345.08 92.64 343.06 92.68 340.97 C 92.69 333.71 92.71 326.45 92.70 319.20 C 80.86 312.25 68.91 305.49 57.06 298.56 Z" />
<path fill="#2be6ab" opacity="1.00" d=" M 228.15 297.01 C 229.25 296.29 230.56 296.09 231.83 295.82 C 232.17 335.21 231.88 374.61 231.97 414.01 C 231.84 432.93 232.24 451.88 231.78 470.78 C 227.51 473.67 222.93 476.08 218.45 478.61 C 221.10 474.38 226.59 473.33 230.38 470.31 C 229.78 452.23 230.28 434.12 230.12 416.03 C 230.02 376.95 230.31 337.87 229.97 298.79 C 218.23 305.38 206.66 312.26 194.95 318.90 C 194.81 361.63 194.91 404.36 194.90 447.09 C 195.32 449.16 193.18 449.95 191.81 450.92 C 179.35 458.09 166.88 465.27 154.44 472.48 C 151.98 473.93 149.31 475.08 147.13 476.95 C 146.22 490.96 147.71 505.08 146.35 519.07 C 169.57 505.47 192.93 492.09 216.24 478.66 L 217.82 478.78 C 195.55 492.30 172.69 504.85 150.24 518.09 C 148.74 519.09 147.00 519.62 145.24 519.94 C 144.75 505.00 145.16 490.04 145.02 475.09 C 160.38 466.36 175.60 457.40 190.95 448.65 C 191.85 448.05 193.32 447.52 192.99 446.12 C 193.13 403.13 192.88 360.13 193.12 317.14 C 204.84 310.52 216.46 303.70 228.15 297.01 Z" />
<path fill="#2be6ab" opacity="1.00" d=" M 293.77 297.16 C 305.40 297.19 317.04 297.16 328.67 297.17 C 328.66 368.00 328.67 438.83 328.67 509.66 C 325.80 509.65 322.93 509.64 320.07 509.76 C 319.86 439.01 319.99 368.25 319.98 297.49 C 311.24 297.41 302.50 297.40 293.77 297.50 L 293.77 297.16 Z" />
<path fill="#2be6ab" opacity="1.00" d=" M 353.83 297.25 C 366.44 296.96 379.06 297.25 391.67 297.17 C 391.67 352.10 391.66 407.04 391.68 461.97 C 391.72 468.19 393.52 475.36 399.27 478.73 C 400.12 479.46 401.62 479.83 401.87 481.08 C 395.96 482.53 389.43 479.92 386.14 474.82 C 383.45 470.77 382.88 465.77 382.84 461.02 C 382.92 406.53 382.78 352.05 382.91 297.57 C 381.05 297.48 379.20 297.40 377.35 297.35 C 369.51 297.19 361.67 297.35 353.83 297.25 Z" />
<path fill="#2be6ab" opacity="1.00" d=" M 429.90 297.26 C 441.85 296.96 453.80 297.25 465.76 297.17 C 465.72 351.78 465.79 406.39 465.72 461.00 C 465.58 474.82 461.48 489.41 451.05 499.04 C 440.08 509.38 424.37 512.60 409.73 512.39 C 420.10 511.27 430.66 508.49 439.03 501.98 C 451.65 492.57 456.89 476.32 456.90 461.09 C 456.97 406.56 456.88 352.04 456.94 297.51 C 455.17 297.46 453.40 297.40 451.64 297.36 C 444.39 297.20 437.15 297.33 429.90 297.26 Z" />
<path fill="#2be6ab" opacity="1.00" d=" M 607.77 297.25 C 620.46 296.96 633.15 297.25 645.84 297.17 C 653.91 345.95 661.82 394.77 670.02 443.54 C 668.70 452.45 667.31 461.37 665.55 470.21 C 656.23 412.63 646.60 355.10 637.18 297.53 C 635.39 297.47 633.61 297.41 631.84 297.36 C 623.82 297.18 615.79 297.35 607.77 297.25 Z" />
<path fill="#2be6ab" opacity="1.00" d=" M 702.86 297.16 C 714.33 297.16 725.81 297.17 737.28 297.16 C 725.06 368.00 712.80 438.83 700.57 509.67 C 697.70 509.65 694.83 509.64 691.97 509.76 C 696.93 480.14 702.21 450.57 707.23 420.95 C 698.98 420.92 690.73 420.95 682.49 420.93 C 689.24 379.67 696.07 338.42 702.86 297.16 Z" />
<path fill="#2be6ab" opacity="1.00" d=" M 841.83 297.22 C 846.75 297.14 851.67 297.16 856.60 297.18 C 856.57 307.34 856.58 317.50 856.59 327.66 C 853.66 327.66 850.73 327.65 847.81 327.73 C 847.83 317.70 847.71 307.68 847.89 297.65 C 846.08 297.52 844.28 297.39 842.50 297.26 L 841.83 297.22 Z" />
<path fill="#2be6ab" opacity="1.00" d=" M 878.76 297.26 C 894.55 296.95 910.36 297.27 926.16 297.14 C 936.88 332.45 947.50 367.79 958.19 403.11 C 960.32 409.81 962.03 416.64 964.47 423.24 C 964.54 381.21 964.47 339.18 964.51 297.16 C 975.64 297.17 986.78 297.16 997.92 297.16 C 997.90 368.01 997.96 438.85 997.89 509.69 C 995.01 509.65 992.13 509.64 989.26 509.76 C 989.19 487.49 989.26 465.22 989.23 442.96 C 978.24 442.92 967.26 442.97 956.27 442.93 C 955.75 441.14 955.28 439.33 954.84 437.53 C 954.59 429.99 955.47 422.19 952.98 414.94 C 941.03 375.81 929.36 336.60 917.42 297.48 C 915.24 297.44 913.08 297.40 910.93 297.36 C 900.21 297.18 889.48 297.35 878.76 297.26 Z" />
<path fill="#2be6ab" opacity="1.00" d=" M 517.17 334.26 C 519.94 328.00 527.28 324.82 533.86 325.84 L 533.92 326.43 C 530.20 328.50 526.70 331.37 525.47 335.64 C 521.99 346.94 524.34 360.00 531.79 369.25 C 542.85 383.21 557.99 392.97 570.80 405.15 C 582.93 415.86 592.91 429.90 595.91 446.05 C 598.18 460.20 597.25 475.51 590.37 488.33 C 584.23 499.82 572.48 507.50 559.91 510.17 C 552.75 512.06 545.30 511.71 538.02 512.73 C 539.70 512.40 541.37 512.04 543.06 511.71 C 543.31 511.66 543.82 511.57 544.08 511.52 C 556.78 510.23 569.51 504.69 577.50 494.45 C 586.67 482.85 588.86 467.31 587.83 452.95 C 586.66 435.14 576.70 418.98 563.74 407.17 C 551.74 395.45 537.59 386.11 526.33 373.62 C 516.20 363.64 511.89 347.66 517.17 334.26 Z" />
<path fill="#2be6ab" opacity="1.00" d=" M 783.18 327.79 C 786.11 327.82 789.05 327.84 792.00 327.83 C 792.03 347.48 791.95 367.12 792.04 386.76 C 789.08 386.81 786.12 386.82 783.17 386.83 C 783.19 367.15 783.17 347.47 783.18 327.79 Z" />
<path fill="#2be6ab" opacity="1.00" d=" M 55.04 338.48 C 59.37 340.05 63.08 342.87 67.13 345.01 C 76.30 350.40 85.67 355.49 94.70 361.13 C 94.60 389.91 94.75 418.69 94.62 447.47 C 110.22 456.94 126.21 465.77 141.97 474.99 C 141.84 489.99 142.28 505.01 141.73 520.00 C 140.48 519.61 139.21 519.25 138.04 518.65 C 110.37 502.77 82.81 486.68 55.11 470.83 C 54.92 426.72 55.06 382.60 55.04 338.48 M 57.14 341.94 C 56.61 349.64 57.00 357.35 56.88 365.06 C 56.88 395.02 56.89 424.98 56.88 454.95 C 56.86 460.05 57.06 465.16 56.59 470.26 C 84.59 486.60 112.79 502.62 140.78 518.99 C 140.32 516.68 140.05 514.34 140.08 512.00 C 140.15 501.34 140.09 490.68 140.14 480.02 C 139.94 478.65 140.56 476.64 138.91 475.98 C 124.71 467.87 110.60 459.60 96.38 451.52 C 94.74 450.39 92.12 449.47 92.69 446.98 C 92.69 418.80 92.74 390.62 92.67 362.44 C 80.76 355.73 68.93 348.87 57.14 341.94 Z" />
<path fill="#2be6ab" opacity="1.00" d=" M 904.27 374.53 C 907.28 384.13 910.25 393.75 913.00 403.43 C 912.81 438.84 912.99 474.26 912.90 509.68 C 910.00 509.65 907.11 509.64 904.22 509.76 C 904.20 464.69 904.11 419.61 904.27 374.53 Z" />
<path fill="#2be6ab" opacity="1.00" d=" M 834.52 386.72 C 837.45 386.75 840.39 386.75 843.33 386.75 C 843.33 396.89 843.33 407.02 843.33 417.16 C 840.40 417.16 837.47 417.14 834.56 417.25 C 834.50 407.07 834.56 396.90 834.52 386.72 Z" />
<path fill="#2be6ab" opacity="1.00" d=" M 783.19 417.31 C 786.12 417.35 789.05 417.35 791.99 417.35 C 792.02 438.00 791.98 458.65 792.01 479.30 C 789.06 479.35 786.11 479.37 783.17 479.35 C 783.20 458.67 783.16 437.99 783.19 417.31 Z" />
<path fill="#2be6ab" opacity="1.00" d=" M 484.85 445.67 C 496.82 445.02 508.80 445.90 520.80 445.55 C 521.26 453.87 519.77 462.49 522.34 470.56 C 523.86 475.53 528.13 479.03 532.92 480.70 C 529.83 481.44 526.63 481.41 523.51 480.96 C 519.33 479.03 515.28 476.12 513.69 471.60 C 510.70 463.37 512.34 454.44 511.93 445.89 C 510.16 445.83 508.38 445.78 506.62 445.75 C 499.36 445.64 492.11 446.02 484.85 445.67 Z" />
<path fill="#2be6ab" opacity="1.00" d=" M 841.80 479.32 C 846.73 479.21 851.66 479.26 856.59 479.25 C 856.58 489.39 856.58 499.53 856.59 509.66 C 853.66 509.65 850.73 509.64 847.82 509.76 C 847.80 499.73 847.77 489.69 847.84 479.66 C 846.04 479.55 844.25 479.45 842.47 479.36 L 841.80 479.32 Z" />
</g>
<g id="#641fb1ff">
<path fill="#641fb1" opacity="1.00" d=" M 484.40 310.44 C 493.28 300.35 506.89 296.03 519.95 295.14 C 525.60 294.69 531.28 294.91 536.95 295.03 C 539.10 295.20 541.26 295.43 543.41 295.74 C 549.12 297.92 555.20 299.28 560.44 302.54 C 568.79 307.50 575.22 315.45 578.49 324.59 C 582.26 334.32 582.51 344.91 582.28 355.21 C 570.49 355.10 558.69 355.31 546.90 355.04 C 546.72 347.87 547.76 340.20 544.42 333.56 C 542.43 329.41 538.24 326.80 533.86 325.84 C 528.28 324.70 521.98 325.01 517.01 328.07 C 513.39 330.28 511.29 334.28 510.38 338.31 C 508.11 349.08 510.54 360.90 517.54 369.50 C 528.96 383.79 544.58 393.74 557.64 406.37 C 566.03 413.91 573.08 423.03 577.64 433.39 C 583.07 445.74 583.83 459.79 581.40 472.95 C 579.31 485.30 572.43 497.05 561.65 503.71 C 556.33 507.47 549.79 508.58 544.08 511.52 C 543.82 511.57 543.31 511.66 543.06 511.71 C 525.93 513.03 507.27 513.11 492.17 503.76 C 479.97 496.30 473.05 482.44 471.66 468.50 C 470.80 460.92 471.15 453.27 471.19 445.66 C 475.74 445.74 480.29 445.66 484.85 445.67 C 492.11 446.02 499.36 445.64 506.62 445.75 C 506.80 453.62 505.75 461.65 507.56 469.40 C 509.23 476.43 516.22 481.77 523.51 480.96 C 526.63 481.41 529.83 481.44 532.92 480.70 C 538.20 479.38 542.53 475.18 543.98 469.94 C 547.56 457.29 543.35 443.19 534.15 433.96 C 522.77 421.22 508.36 411.77 496.20 399.85 C 483.30 388.04 473.44 371.87 472.34 354.10 C 471.29 338.86 473.82 322.15 484.40 310.44 Z" />
<path fill="#641fb1" opacity="1.00" d=" M 277.15 297.28 C 282.69 297.29 288.23 297.32 293.77 297.16 L 293.77 297.50 C 293.69 368.30 293.78 439.10 293.72 509.90 C 288.19 509.96 282.67 509.83 277.15 509.75 C 277.14 438.92 277.13 368.10 277.15 297.28 Z" />
<path fill="#641fb1" opacity="1.00" d=" M 340.05 297.28 C 344.65 297.30 349.24 297.27 353.83 297.25 C 361.67 297.35 369.51 297.19 377.35 297.35 C 377.54 352.26 377.37 407.17 377.43 462.08 C 377.45 468.35 379.42 475.37 384.99 478.92 C 389.70 482.04 395.57 481.61 400.94 482.23 C 401.17 481.95 401.64 481.37 401.87 481.08 C 406.26 480.85 410.39 478.43 412.78 474.75 C 415.46 470.70 416.10 465.72 416.13 460.97 C 416.12 406.41 416.10 351.84 416.14 297.27 C 420.72 297.30 425.31 297.27 429.90 297.26 C 437.15 297.33 444.39 297.20 451.64 297.36 C 451.46 349.91 451.60 402.46 451.57 455.01 C 451.89 467.01 450.41 479.58 444.13 490.07 C 438.06 500.33 427.47 507.43 415.97 510.17 C 406.26 512.90 396.11 512.51 386.15 512.24 C 376.44 510.90 366.56 508.34 358.59 502.38 C 349.61 495.91 343.79 485.73 341.57 475.00 C 339.38 465.17 340.06 455.05 339.95 445.07 C 340.04 395.81 339.80 346.54 340.05 297.28 Z" />
<path fill="#641fb1" opacity="1.00" d=" M 593.99 297.27 C 598.58 297.30 603.17 297.27 607.77 297.25 C 615.79 297.35 623.82 297.18 631.84 297.36 C 640.59 351.46 649.63 405.52 658.50 459.61 C 659.20 463.78 659.14 468.04 659.92 472.20 C 662.88 484.70 665.10 497.36 667.88 509.90 C 655.46 509.83 643.03 510.07 630.62 509.70 C 618.48 438.88 606.11 368.10 593.99 297.27 Z" />
<path fill="#641fb1" opacity="1.00" d=" M 740.32 297.29 C 774.16 297.08 808.00 297.07 841.83 297.22 L 842.50 297.26 C 842.21 307.46 842.51 317.65 842.30 327.85 C 825.53 327.80 808.76 327.83 792.00 327.83 C 789.05 327.84 786.11 327.82 783.18 327.79 C 781.39 327.76 779.61 327.73 777.84 327.71 C 777.75 347.42 777.67 367.12 777.90 386.82 C 779.64 386.82 781.40 386.82 783.17 386.83 C 786.12 386.82 789.08 386.81 792.04 386.76 C 804.40 386.64 816.77 386.74 829.14 386.70 C 829.15 396.93 829.17 407.15 829.14 417.38 C 816.75 417.31 804.37 417.36 791.99 417.35 C 789.05 417.35 786.12 417.35 783.19 417.31 C 781.42 417.28 779.66 417.25 777.91 417.22 C 777.65 437.90 777.76 458.59 777.84 479.27 C 779.61 479.29 781.38 479.32 783.17 479.35 C 786.11 479.37 789.06 479.35 792.01 479.30 C 808.61 479.24 825.21 479.19 841.80 479.32 L 842.47 479.36 C 842.26 489.55 842.49 499.74 842.32 509.94 C 808.32 509.76 774.31 510.13 740.32 509.74 C 740.34 438.92 740.32 368.11 740.32 297.29 Z" />
<path fill="#641fb1" opacity="1.00" d=" M 865.10 297.28 C 869.65 297.30 874.20 297.27 878.76 297.26 C 889.48 297.35 900.21 297.18 910.93 297.36 C 921.61 331.90 932.47 366.39 943.18 400.93 C 947.10 413.11 950.46 425.49 954.84 437.53 C 955.28 439.33 955.75 441.14 956.27 442.93 C 957.38 446.73 958.65 450.47 959.92 454.22 C 967.93 453.94 976.14 455.59 984.00 453.53 C 983.75 472.33 983.97 491.13 983.88 509.93 C 971.01 509.81 958.13 510.07 945.26 509.73 C 934.49 474.30 923.93 438.81 913.00 403.43 C 910.25 393.75 907.28 384.13 904.27 374.53 C 902.73 369.10 901.26 363.63 899.16 358.38 C 898.45 365.57 898.87 372.80 898.79 380.02 C 889.34 379.78 879.89 379.31 870.45 378.81 C 868.66 378.72 866.89 378.65 865.12 378.59 C 865.06 351.49 865.08 324.38 865.10 297.28 Z" />
<path fill="#641fb1" opacity="1.00" d=" M 865.08 507.06 C 866.86 507.05 868.64 507.05 870.44 507.05 C 879.87 507.04 889.29 506.98 898.72 507.11 C 898.76 507.82 898.82 509.22 898.86 509.93 C 887.60 509.83 876.34 510.03 865.09 509.74 C 865.08 509.07 865.08 507.73 865.08 507.06 Z" />
</g>
<g id="#111c77ff">
<path fill="#111c77" opacity="1.00" d=" M 543.41 295.74 C 553.94 296.72 564.52 300.38 572.45 307.57 C 579.26 313.67 583.72 322.10 585.79 330.95 C 587.76 338.81 587.80 346.97 587.74 355.02 C 585.91 355.11 584.10 355.17 582.28 355.21 C 582.51 344.91 582.26 334.32 578.49 324.59 C 575.22 315.45 568.79 307.50 560.44 302.54 C 555.20 299.28 549.12 297.92 543.41 295.74 Z" />
<path fill="#111c77" opacity="1.00" d=" M 293.77 297.50 C 302.50 297.40 311.24 297.41 319.98 297.49 C 319.99 368.25 319.86 439.01 320.07 509.76 C 311.29 510.08 302.50 509.82 293.72 509.90 C 293.78 439.10 293.69 368.30 293.77 297.50 Z" />
<path fill="#111c77" opacity="1.00" d=" M 377.35 297.35 C 379.20 297.40 381.05 297.48 382.91 297.57 C 382.78 352.05 382.92 406.53 382.84 461.02 C 382.88 465.77 383.45 470.77 386.14 474.82 C 389.43 479.92 395.96 482.53 401.87 481.08 C 401.64 481.37 401.17 481.95 400.94 482.23 C 395.57 481.61 389.70 482.04 384.99 478.92 C 379.42 475.37 377.45 468.35 377.43 462.08 C 377.37 407.17 377.54 352.26 377.35 297.35 Z" />
<path fill="#111c77" opacity="1.00" d=" M 451.64 297.36 C 453.40 297.40 455.17 297.46 456.94 297.51 C 456.88 352.04 456.97 406.56 456.90 461.09 C 456.89 476.32 451.65 492.57 439.03 501.98 C 430.66 508.49 420.10 511.27 409.73 512.39 C 401.89 512.92 393.92 512.76 386.15 512.24 C 396.11 512.51 406.26 512.90 415.97 510.17 C 427.47 507.43 438.06 500.33 444.13 490.07 C 450.41 479.58 451.89 467.01 451.57 455.01 C 451.60 402.46 451.46 349.91 451.64 297.36 Z" />
<path fill="#111c77" opacity="1.00" d=" M 631.84 297.36 C 633.61 297.41 635.39 297.47 637.18 297.53 C 646.60 355.10 656.23 412.63 665.55 470.21 C 667.31 461.37 668.70 452.45 670.02 443.54 C 671.42 436.04 672.59 428.49 673.83 420.97 C 676.71 420.94 679.60 420.93 682.49 420.93 C 690.73 420.95 698.98 420.92 707.23 420.95 C 702.21 450.57 696.93 480.14 691.97 509.76 C 683.94 510.08 675.91 509.83 667.88 509.90 C 665.10 497.36 662.88 484.70 659.92 472.20 C 659.14 468.04 659.20 463.78 658.50 459.61 C 649.63 405.52 640.59 351.46 631.84 297.36 Z" />
<path fill="#111c77" opacity="1.00" d=" M 842.50 297.26 C 844.28 297.39 846.08 297.52 847.89 297.65 C 847.71 307.68 847.83 317.70 847.81 327.73 C 845.97 327.79 844.13 327.82 842.30 327.85 C 842.51 317.65 842.21 307.46 842.50 297.26 Z" />
<path fill="#111c77" opacity="1.00" d=" M 910.93 297.36 C 913.08 297.40 915.24 297.44 917.42 297.48 C 929.36 336.60 941.03 375.81 952.98 414.94 C 955.47 422.19 954.59 429.99 954.84 437.53 C 950.46 425.49 947.10 413.11 943.18 400.93 C 932.47 366.39 921.61 331.90 910.93 297.36 Z" />
<path fill="#111c77" opacity="1.00" d=" M 57.06 298.56 C 68.91 305.49 80.86 312.25 92.70 319.20 C 92.71 326.45 92.69 333.71 92.68 340.97 C 92.64 343.06 93.21 345.08 93.72 347.09 C 81.26 340.06 69.00 332.68 56.48 325.76 C 57.44 316.73 56.48 307.62 57.06 298.56 Z" />
<path fill="#111c77" opacity="1.00" d=" M 194.95 318.90 C 206.66 312.26 218.23 305.38 229.97 298.79 C 230.31 337.87 230.02 376.95 230.12 416.03 C 230.28 434.12 229.78 452.23 230.38 470.31 C 226.59 473.33 221.10 474.38 218.45 478.61 L 218.33 478.81 C 218.20 478.80 217.95 478.78 217.82 478.78 L 216.24 478.66 C 192.93 492.09 169.57 505.47 146.35 519.07 C 147.71 505.08 146.22 490.96 147.13 476.95 C 149.31 475.08 151.98 473.93 154.44 472.48 C 166.88 465.27 179.35 458.09 191.81 450.92 C 193.18 449.95 195.32 449.16 194.90 447.09 C 194.91 404.36 194.81 361.63 194.95 318.90 Z" />
<path fill="#111c77" opacity="1.00" d=" M 517.01 328.07 C 521.98 325.01 528.28 324.70 533.86 325.84 C 527.28 324.82 519.94 328.00 517.17 334.26 C 511.89 347.66 516.20 363.64 526.33 373.62 C 537.59 386.11 551.74 395.45 563.74 407.17 C 576.70 418.98 586.66 435.14 587.83 452.95 C 588.86 467.31 586.67 482.85 577.50 494.45 C 569.51 504.69 556.78 510.23 544.08 511.52 C 549.79 508.58 556.33 507.47 561.65 503.71 C 572.43 497.05 579.31 485.30 581.40 472.95 C 583.83 459.79 583.07 445.74 577.64 433.39 C 573.08 423.03 566.03 413.91 557.64 406.37 C 544.58 393.74 528.96 383.79 517.54 369.50 C 510.54 360.90 508.11 349.08 510.38 338.31 C 511.29 334.28 513.39 330.28 517.01 328.07 Z" />
<path fill="#111c77" opacity="1.00" d=" M 777.84 327.71 C 779.61 327.73 781.39 327.76 783.18 327.79 C 783.17 347.47 783.19 367.15 783.17 386.83 C 781.40 386.82 779.64 386.82 777.90 386.82 C 777.67 367.12 777.75 347.42 777.84 327.71 Z" />
<path fill="#111c77" opacity="1.00" d=" M 57.14 341.94 C 68.93 348.87 80.76 355.73 92.67 362.44 C 92.74 390.62 92.69 418.80 92.69 446.98 C 92.12 449.47 94.74 450.39 96.38 451.52 C 110.60 459.60 124.71 467.87 138.91 475.98 C 140.56 476.64 139.94 478.65 140.14 480.02 C 140.09 490.68 140.15 501.34 140.08 512.00 C 140.05 514.34 140.32 516.68 140.78 518.99 C 112.79 502.62 84.59 486.60 56.59 470.26 C 57.06 465.16 56.86 460.05 56.88 454.95 C 56.89 424.98 56.88 395.02 56.88 365.06 C 57.00 357.35 56.61 349.64 57.14 341.94 Z" />
<path fill="#111c77" opacity="1.00" d=" M 899.16 358.38 C 901.26 363.63 902.73 369.10 904.27 374.53 C 904.11 419.61 904.20 464.69 904.22 509.76 C 902.42 509.84 900.63 509.89 898.86 509.93 C 898.82 509.22 898.76 507.82 898.72 507.11 C 889.29 506.98 879.87 507.04 870.44 507.05 C 870.50 464.30 870.47 421.55 870.45 378.81 C 879.89 379.31 889.34 379.78 898.79 380.02 C 898.87 372.80 898.45 365.57 899.16 358.38 Z" />
<path fill="#111c77" opacity="1.00" d=" M 829.14 386.70 C 830.92 386.70 832.72 386.71 834.52 386.72 C 834.56 396.90 834.50 407.07 834.56 417.25 C 832.74 417.32 830.93 417.36 829.14 417.38 C 829.17 407.15 829.15 396.93 829.14 386.70 Z" />
<path fill="#111c77" opacity="1.00" d=" M 777.91 417.22 C 779.66 417.25 781.42 417.28 783.19 417.31 C 783.16 437.99 783.20 458.67 783.17 479.35 C 781.38 479.32 779.61 479.29 777.84 479.27 C 777.76 458.59 777.65 437.90 777.91 417.22 Z" />
<path fill="#111c77" opacity="1.00" d=" M 956.27 442.93 C 967.26 442.97 978.24 442.92 989.23 442.96 C 989.26 465.22 989.19 487.49 989.26 509.76 C 987.45 509.84 985.66 509.89 983.88 509.93 C 983.97 491.13 983.75 472.33 984.00 453.53 C 976.14 455.59 967.93 453.94 959.92 454.22 C 958.65 450.47 957.38 446.73 956.27 442.93 Z" />
<path fill="#111c77" opacity="1.00" d=" M 506.62 445.75 C 508.38 445.78 510.16 445.83 511.93 445.89 C 512.34 454.44 510.70 463.37 513.69 471.60 C 515.28 476.12 519.33 479.03 523.51 480.96 C 516.22 481.77 509.23 476.43 507.56 469.40 C 505.75 461.65 506.80 453.62 506.62 445.75 Z" />
<path fill="#111c77" opacity="1.00" d=" M 842.47 479.36 C 844.25 479.45 846.04 479.55 847.84 479.66 C 847.77 489.69 847.80 499.73 847.82 509.76 C 845.98 509.85 844.14 509.90 842.32 509.94 C 842.49 499.74 842.26 489.55 842.47 479.36 Z" />
<path fill="#111c77" opacity="1.00" d=" M 200.41 552.52 C 204.53 551.45 209.60 552.08 212.28 555.74 C 216.03 560.75 214.70 567.59 213.26 573.20 C 210.62 580.51 206.71 587.90 200.16 592.42 C 198.80 602.98 200.77 614.75 194.58 624.10 C 197.57 627.51 199.91 631.60 203.61 634.32 C 210.41 638.66 219.72 638.81 226.63 634.64 C 229.11 633.18 230.98 630.57 234.02 630.20 C 232.21 635.86 226.13 638.38 220.83 639.65 C 209.69 641.39 196.13 638.84 189.86 628.50 C 187.58 628.80 185.29 629.30 182.98 629.15 C 180.05 629.14 177.83 625.28 179.81 622.90 C 182.04 620.63 185.55 621.23 188.42 621.16 C 192.87 613.04 191.74 603.57 192.26 594.69 C 187.34 594.41 181.83 593.50 178.69 589.28 C 174.67 584.50 175.00 577.87 175.67 572.06 C 176.24 568.41 177.24 564.54 179.90 561.83 C 181.63 560.12 184.26 560.75 186.43 560.61 C 184.27 568.23 181.24 576.32 183.67 584.26 C 184.76 588.27 188.05 591.67 192.33 592.01 C 193.16 582.52 192.50 572.94 193.76 563.48 C 194.63 559.30 195.93 554.17 200.41 552.52 M 199.96 564.95 C 199.71 572.95 199.81 580.96 200.03 588.96 C 206.62 582.74 210.91 574.05 211.64 565.00 C 211.71 561.92 211.46 558.26 208.89 556.16 C 207.32 554.86 205.04 553.66 203.05 554.73 C 200.18 557.28 200.20 561.43 199.96 564.95 M 183.10 625.81 C 184.26 626.74 186.17 625.46 186.10 624.09 C 185.36 622.00 181.72 624.07 183.10 625.81 Z" />
<path fill="#111c77" opacity="1.00" d=" M 510.94 553.73 C 517.15 550.74 525.77 552.68 528.81 559.23 C 532.27 566.61 531.79 575.05 532.03 583.00 C 532.31 590.15 531.01 597.72 526.47 603.47 C 519.08 612.93 506.48 617.87 494.61 616.57 C 493.52 625.61 493.70 634.72 493.00 643.78 C 490.59 643.57 487.50 644.38 485.85 642.10 C 484.22 639.76 484.14 636.76 484.02 634.02 C 484.39 614.36 485.31 594.70 485.74 575.04 C 485.58 572.10 486.19 568.91 484.87 566.19 C 483.76 564.43 481.70 565.67 480.33 566.35 C 475.52 568.85 473.07 574.08 471.47 579.00 C 470.12 583.14 470.86 587.50 471.58 591.68 C 469.91 591.56 468.03 591.10 468.15 589.06 C 467.11 582.02 468.67 574.57 472.71 568.68 C 476.00 564.00 482.36 561.05 487.95 563.18 C 490.51 564.19 491.78 566.94 492.17 569.52 C 493.28 576.34 492.66 583.30 493.46 590.16 C 494.53 581.62 496.12 572.96 500.14 565.26 C 502.44 560.45 505.77 555.70 510.94 553.73 M 510.62 557.62 C 505.23 561.93 502.38 568.58 500.41 575.02 C 496.87 587.68 495.58 600.86 495.03 613.96 C 506.52 613.80 518.76 607.18 522.82 595.97 C 526.73 586.49 525.90 575.92 524.21 566.06 C 523.42 562.34 522.75 557.80 519.11 555.75 C 516.25 554.09 512.99 555.92 510.62 557.62 Z" />
<path fill="#111c77" opacity="1.00" d=" M 661.12 556.13 C 663.65 553.75 669.06 552.45 671.06 556.07 C 672.93 560.10 672.86 564.69 673.18 569.03 C 673.41 581.38 673.13 593.74 672.75 606.09 C 672.32 614.70 672.21 623.36 670.70 631.88 C 668.77 631.95 666.86 632.01 664.95 632.06 C 664.69 607.67 667.61 583.36 667.30 558.98 C 667.27 557.74 666.98 554.88 665.08 556.16 C 658.64 559.83 657.09 567.95 657.97 574.78 C 657.31 574.71 655.98 574.59 655.32 574.53 C 654.56 568.00 656.39 560.85 661.12 556.13 Z" />
<path fill="#111c77" opacity="1.00" d=" M 412.34 577.41 C 415.10 572.90 424.31 571.80 425.40 578.11 C 426.01 587.46 419.47 595.11 414.36 602.27 C 412.73 607.70 413.36 613.60 413.17 619.23 C 417.05 611.76 419.85 603.66 424.87 596.82 C 427.77 592.39 436.24 592.78 437.42 598.46 C 439.06 609.15 437.33 619.98 436.65 630.69 C 441.68 624.81 444.75 617.56 447.48 610.40 C 448.09 609.25 448.39 607.22 450.23 607.60 C 450.34 610.06 449.20 612.34 448.42 614.61 C 445.85 621.04 443.73 627.87 439.27 633.31 C 437.64 635.63 434.45 635.18 432.01 634.94 C 428.40 634.40 426.99 630.15 427.13 626.96 C 427.39 616.66 430.29 606.59 430.20 596.26 C 425.04 599.68 422.67 605.67 420.18 611.07 C 417.44 616.91 415.90 623.25 412.87 628.96 C 409.94 628.99 406.28 629.55 404.41 626.69 C 402.81 623.77 403.57 620.24 403.48 617.05 C 400.87 621.88 399.43 627.48 395.55 631.52 C 391.86 635.47 385.85 635.51 380.92 634.56 C 374.23 632.70 370.99 625.15 371.57 618.68 C 369.04 622.02 367.51 626.54 363.61 628.54 C 357.80 630.60 351.53 626.79 350.14 620.93 C 348.51 625.38 347.75 630.20 345.33 634.35 C 343.98 637.04 340.53 636.88 338.00 636.48 C 334.64 635.94 332.05 633.30 330.72 630.29 C 328.27 625.54 329.64 620.03 329.13 614.94 C 325.84 620.03 323.84 626.22 319.01 630.15 C 316.01 631.45 311.74 631.25 309.62 628.44 C 307.42 625.58 307.17 621.84 306.54 618.43 C 303.76 624.31 301.71 630.60 298.00 635.99 C 296.54 638.42 293.36 638.11 290.94 637.94 C 287.14 637.79 285.36 633.66 284.63 630.48 C 283.71 621.95 284.67 613.36 285.80 604.90 C 281.67 613.08 278.86 621.82 275.24 630.22 C 274.22 633.96 269.46 633.15 266.60 632.40 C 262.41 629.32 263.43 623.38 263.68 618.87 C 261.46 621.36 257.81 623.21 257.45 626.86 C 256.69 631.64 255.60 636.67 252.36 640.45 C 249.23 644.20 243.89 645.69 239.19 644.71 C 235.99 643.84 236.10 639.63 237.40 637.25 C 239.76 633.01 244.32 630.83 247.89 627.80 C 249.10 626.10 248.99 623.83 249.44 621.88 C 250.24 615.42 251.10 608.93 251.04 602.41 C 246.94 608.59 245.33 615.93 242.64 622.74 C 241.95 625.80 238.23 624.85 235.96 624.61 C 232.50 623.76 232.30 619.71 231.79 616.85 C 229.33 620.67 227.54 625.18 223.89 628.06 C 218.69 630.77 211.37 627.80 209.97 621.96 C 208.62 616.39 209.21 610.41 210.89 604.97 C 212.72 598.97 219.87 594.96 225.84 597.20 C 228.07 598.72 227.18 601.86 226.51 603.99 C 225.26 607.83 221.90 610.37 218.51 612.26 C 218.24 616.78 219.05 621.33 221.11 625.39 C 229.51 620.17 231.90 609.89 237.10 602.12 C 239.53 598.09 245.41 596.39 249.13 599.68 C 250.98 598.98 253.90 597.58 255.20 599.90 C 258.42 606.28 258.12 613.59 258.12 620.54 C 261.02 617.60 264.37 614.81 265.91 610.85 C 267.71 606.38 270.02 601.84 273.96 598.89 C 277.62 596.39 282.60 596.42 286.44 598.52 C 287.94 598.51 289.45 598.44 290.95 598.66 C 293.34 600.25 293.53 603.49 294.00 606.06 C 294.98 614.74 294.10 623.52 295.01 632.21 C 299.28 627.30 301.65 621.18 304.43 615.38 C 305.47 613.05 306.85 610.73 306.83 608.10 C 307.14 599.73 308.87 591.42 311.77 583.57 C 313.30 580.66 314.72 577.08 318.03 575.82 C 320.53 575.13 324.01 574.88 325.65 577.35 C 327.28 579.32 326.92 582.01 327.12 584.38 C 329.20 584.09 331.36 584.07 333.36 583.37 C 334.19 581.39 334.62 579.29 335.18 577.24 C 335.91 577.22 337.37 577.17 338.09 577.15 C 338.59 579.04 339.06 580.94 339.55 582.85 C 345.67 582.01 352.04 581.21 358.12 582.75 C 360.32 583.16 361.63 585.06 362.18 587.10 C 359.11 587.15 357.03 584.35 354.05 584.15 C 349.37 583.81 344.62 584.15 340.01 584.93 C 339.22 588.87 340.32 593.04 340.26 597.09 C 341.07 608.83 340.12 620.76 342.34 632.37 C 348.85 624.38 348.42 613.29 351.96 604.00 C 354.04 598.66 360.40 595.43 365.92 596.93 C 368.78 598.02 367.99 601.75 367.16 603.99 C 365.94 607.90 362.46 610.36 359.11 612.36 C 359.10 616.57 359.44 620.92 361.48 624.69 C 362.96 625.38 363.96 623.80 364.98 623.00 C 369.32 618.64 372.00 613.00 374.47 607.46 C 376.75 602.59 381.31 598.25 386.94 598.09 C 389.70 597.91 393.48 598.13 394.71 601.11 C 396.49 606.31 394.73 611.88 392.71 616.74 C 392.15 618.20 391.00 618.87 389.24 618.75 C 390.60 613.92 393.41 609.19 392.55 604.01 C 392.24 601.94 389.49 599.88 387.71 601.70 C 384.01 605.04 383.47 610.41 382.85 615.06 C 382.52 620.12 382.26 626.10 386.05 630.03 C 387.95 632.32 390.84 630.04 392.70 628.83 C 398.45 623.94 400.73 616.38 403.52 609.64 C 405.40 598.74 405.63 586.73 412.34 577.41 M 414.23 598.34 C 418.52 593.48 421.67 587.40 422.49 580.93 C 422.98 578.84 421.17 577.48 419.95 576.15 C 415.31 582.52 415.57 590.88 414.23 598.34 M 321.13 577.65 C 320.06 579.83 319.25 582.13 318.64 584.48 C 320.62 584.49 322.61 584.48 324.60 584.47 C 324.48 581.71 323.51 579.17 321.13 577.65 M 318.39 586.35 C 317.67 590.63 316.90 594.90 316.41 599.22 C 319.96 595.60 322.55 591.15 324.07 586.33 C 322.17 586.32 320.28 586.33 318.39 586.35 M 327.02 586.31 C 324.81 592.74 320.72 598.29 315.99 603.10 C 315.76 611.06 315.19 619.27 317.78 626.95 C 322.34 622.79 324.77 617.04 327.84 611.83 C 328.91 609.98 330.04 608.07 330.16 605.88 C 330.99 599.11 332.07 592.38 333.12 585.64 C 331.08 585.86 329.05 586.08 327.02 586.31 M 219.01 609.29 C 222.31 606.80 225.81 602.98 224.12 598.52 C 219.50 599.98 219.51 605.34 219.01 609.29 M 363.18 599.22 C 359.99 601.44 360.21 605.80 359.80 609.22 C 362.06 607.25 364.63 605.11 365.19 601.99 C 365.41 600.53 365.21 598.17 363.18 599.22 M 274.63 620.17 C 278.13 613.92 280.90 607.28 284.37 601.01 C 283.74 600.76 282.49 600.26 281.87 600.02 C 277.27 605.60 275.99 613.23 274.63 620.17 M 245.46 600.99 C 243.28 605.40 242.17 610.28 242.14 615.20 C 243.95 611.11 245.50 606.92 247.32 602.84 C 246.70 602.21 246.08 601.60 245.46 600.99 M 240.58 641.91 C 244.52 640.07 246.21 635.82 247.15 631.86 C 243.99 634.30 239.71 637.33 240.58 641.91 Z" />
<path fill="#111c77" opacity="1.00" d=" M 572.41 594.48 C 574.83 593.04 579.17 592.87 580.24 596.10 C 581.13 599.18 580.00 602.34 579.38 605.37 C 581.71 607.44 584.58 608.93 586.61 611.34 C 587.25 616.76 586.91 622.26 587.26 627.71 C 589.43 624.36 591.65 620.91 592.45 616.94 C 593.84 610.72 596.36 604.49 600.98 599.96 C 604.34 596.67 609.66 596.25 613.85 598.07 C 616.06 599.11 619.61 597.51 620.78 600.25 C 622.27 603.23 622.44 606.64 622.67 609.91 C 623.02 617.37 622.67 624.85 623.29 632.30 C 629.26 625.20 631.96 616.13 636.17 608.01 C 636.83 607.89 638.14 607.64 638.80 607.51 C 637.75 612.63 635.20 617.22 633.26 622.03 C 631.15 626.84 629.28 631.84 626.21 636.14 C 624.60 638.57 621.32 638.06 618.84 637.89 C 615.46 637.50 613.83 633.85 613.07 630.95 C 611.84 622.54 613.25 614.07 613.78 605.67 C 609.61 613.85 607.00 622.70 603.16 631.01 C 602.24 633.63 598.96 632.84 596.84 632.87 C 593.56 632.91 592.60 629.29 591.61 626.86 C 590.53 628.48 589.83 630.61 588.04 631.58 C 584.67 632.25 580.32 631.66 578.71 628.19 C 577.35 624.63 578.59 620.77 578.45 617.09 C 578.05 614.20 575.47 612.60 573.17 611.32 C 569.45 619.50 566.64 628.18 561.80 635.80 C 560.44 638.27 557.34 638.16 554.91 637.97 C 550.89 637.98 548.90 633.61 548.26 630.22 C 547.45 621.81 548.24 613.33 549.54 605.01 C 545.08 613.23 542.50 622.28 538.63 630.76 C 537.73 633.69 534.15 632.89 531.84 632.83 C 528.63 632.54 527.35 628.82 527.15 626.08 C 526.59 617.20 529.48 608.02 535.16 601.15 C 538.63 596.70 545.30 595.80 550.12 598.52 C 552.07 598.74 554.97 597.73 555.99 600.04 C 557.47 602.72 557.67 605.87 557.94 608.87 C 558.41 616.65 557.96 624.46 558.61 632.23 C 564.13 625.77 566.88 617.57 570.48 610.00 C 566.91 605.44 567.70 597.94 572.41 594.48 M 576.07 597.23 C 576.35 598.89 576.65 600.58 577.23 602.17 C 577.44 600.54 577.59 598.90 577.73 597.28 C 577.31 597.27 576.49 597.24 576.07 597.23 M 545.24 599.68 C 541.46 605.90 539.37 613.00 538.33 620.17 C 541.67 613.95 544.62 607.52 547.82 601.23 C 546.97 600.68 546.11 600.16 545.24 599.68 M 610.07 599.64 C 606.17 605.78 603.81 612.95 603.25 620.20 C 606.25 613.90 609.07 607.49 612.62 601.47 C 611.77 600.85 610.92 600.24 610.07 599.64 Z" />
<path fill="#111c77" opacity="1.00" d=" M 858.91 594.84 C 861.31 592.98 866.12 592.70 867.26 596.16 C 868.11 599.22 866.99 602.36 866.38 605.37 C 868.72 607.44 871.58 608.94 873.62 611.35 C 874.25 616.69 873.89 622.10 874.28 627.46 C 877.70 622.95 879.82 617.61 881.20 612.15 C 881.80 610.29 882.03 607.03 884.85 608.05 C 884.14 613.25 882.14 618.16 880.25 623.02 C 878.92 625.91 877.87 629.15 875.48 631.37 C 872.09 632.43 867.41 631.76 865.72 628.21 C 864.34 624.64 865.58 620.77 865.45 617.08 C 865.07 614.31 862.63 612.73 860.44 611.45 C 857.30 618.63 854.51 626.00 850.89 632.96 C 849.70 634.88 848.62 637.56 846.09 637.90 C 843.57 638.05 840.47 638.48 838.56 636.46 C 836.92 634.68 835.92 632.36 835.55 629.99 C 834.79 621.62 835.67 613.23 836.79 604.94 C 832.89 612.69 830.11 620.92 826.82 628.93 C 826.22 630.19 825.73 631.58 824.70 632.56 C 821.89 633.01 817.96 633.73 816.11 630.98 C 813.54 627.10 814.44 622.19 814.88 617.86 C 812.69 620.36 809.79 622.07 806.43 622.32 C 805.29 624.96 804.53 628.10 802.06 629.85 C 798.01 631.17 793.38 629.38 791.36 625.63 C 788.86 620.92 788.40 615.47 787.51 610.30 C 785.35 610.32 783.20 610.30 781.06 610.23 C 780.84 615.49 779.51 620.95 776.15 625.12 C 773.58 627.31 769.83 626.67 766.76 626.32 C 762.90 625.62 761.13 621.81 759.88 618.53 C 757.81 621.39 756.47 626.49 751.99 625.79 C 748.00 626.11 744.10 623.40 743.32 619.42 C 742.49 614.42 743.31 609.34 743.50 604.32 C 735.35 610.29 733.70 620.88 728.84 629.09 C 725.90 629.98 721.84 629.86 719.95 627.05 C 718.02 624.06 718.38 620.33 718.38 616.95 C 715.98 620.06 714.96 626.03 710.08 625.79 C 706.18 626.19 702.12 623.86 701.15 619.95 C 700.02 614.82 700.98 609.53 701.20 604.36 C 693.60 609.89 691.43 619.53 687.49 627.54 C 686.33 630.58 682.52 629.50 680.08 629.08 C 676.59 627.58 676.00 623.33 675.99 620.00 C 676.10 613.93 676.65 607.65 679.05 602.01 C 680.34 598.78 686.85 598.79 686.90 602.83 C 687.27 608.05 686.68 613.30 687.04 618.53 C 690.70 613.12 692.95 606.41 698.53 602.57 C 701.78 600.25 707.58 600.78 709.01 604.99 C 711.15 610.71 710.21 616.96 710.73 622.93 C 714.77 619.58 716.75 614.56 718.87 609.92 C 720.30 606.71 720.01 602.38 723.07 600.14 C 725.17 599.61 728.47 599.24 729.10 602.01 C 729.72 607.70 729.04 613.44 729.26 619.15 C 732.50 613.60 734.99 607.30 740.07 603.12 C 743.23 600.33 749.46 600.38 751.22 604.71 C 753.56 610.53 752.44 616.97 753.18 623.07 C 756.91 619.50 759.14 614.75 760.99 610.01 C 762.09 607.13 763.80 603.97 766.99 603.07 C 770.24 602.46 773.57 602.91 776.85 603.01 C 779.32 606.19 782.69 610.00 787.22 608.47 C 787.28 606.53 787.39 604.62 787.55 602.70 C 789.03 602.67 790.52 602.72 792.01 602.85 C 793.79 604.85 794.59 607.49 795.40 610.00 C 797.10 615.78 798.49 621.67 800.63 627.32 C 802.08 625.41 803.40 623.39 804.50 621.26 C 800.25 616.54 801.20 609.67 802.34 603.97 C 802.90 600.92 805.69 597.82 809.05 598.56 C 811.16 598.73 811.61 601.18 811.77 602.88 C 812.39 609.04 808.91 614.48 807.70 620.35 C 816.79 616.24 817.37 604.46 825.02 598.86 C 828.65 596.41 833.59 596.43 837.40 598.51 C 838.90 598.50 840.41 598.44 841.93 598.65 C 844.35 600.21 844.51 603.49 845.00 606.06 C 845.97 614.75 845.10 623.53 846.01 632.23 C 851.38 625.76 854.22 617.70 857.72 610.16 C 853.92 605.85 854.64 598.55 858.91 594.84 M 863.07 597.23 C 863.35 598.89 863.65 600.57 864.21 602.18 C 864.43 600.54 864.59 598.91 864.74 597.29 C 864.32 597.27 863.49 597.25 863.07 597.23 M 831.87 601.02 C 828.37 606.81 826.74 613.55 825.62 620.17 C 829.14 613.91 831.91 607.27 835.37 600.98 C 834.16 600.61 832.62 599.29 831.87 601.02 M 808.79 601.76 C 807.69 606.54 806.09 611.31 806.38 616.28 C 808.07 611.71 810.12 606.68 808.79 601.76 M 771.05 622.04 C 771.47 623.69 773.13 622.77 773.90 621.93 C 777.31 618.62 778.07 613.60 778.22 609.07 C 777.02 607.74 775.85 606.39 774.71 605.04 C 770.38 609.40 769.16 616.31 771.05 622.04 Z" />
</g>
</svg>
